<?xml version="1.0" encoding="UTF-8"?>
<svg width="192px" height="24px" viewBox="0 0 192 24" version="1.1" xmlns="http://www.w3.org/2000/svg" xmlns:xlink="http://www.w3.org/1999/xlink">
    <!-- Generator: Sketch 58 (84663) - https://sketch.com -->
    <title>Artboard</title>
    <desc>Created with Sketch.</desc>
    <g id="Artboard" stroke="none" stroke-width="1" fill="none" fill-rule="evenodd">
        <g id="logo-light" fill-rule="nonzero">
            <g id="logo-with-text">
                <path d="M1.044,3.714 C0.507,6.745 1.537,11.03 3.944,15.214 C6.363,19.394 9.558,22.425 12.454,23.5 L12.454,0.5 C7.617,0.5 3.377,1.754 1.018,3.71 L1.044,3.714 Z" id="Path" fill="#070DE9"></path>
                <path d="M20.93,15.21 C23.349,11.03 24.364,6.745 23.856,3.71 C21.5,1.773 17.287,0.5 12.435,0.5 L12.435,23.5 C15.317,22.425 18.526,19.394 20.945,15.214 L20.93,15.21 Z" id="Path" fill="#E9D100"></path>
                <path d="M18.153,4.267 C17.4465458,4.06810328 16.7271553,3.91841123 16,3.819 C16.0063286,4.14793537 15.991632,4.47693901 15.956,4.804 C15.896,5.55 15.806,6.342 15.702,7.118 C16.1452242,7.25148734 16.5711643,7.43676625 16.971,7.67 C16.9637536,8.2148937 16.888505,8.75675102 16.747,9.283 C16.4944536,10.2831899 16.0918891,11.2393649 15.553,12.119 C15.0813731,13.0280374 14.4661298,13.8550027 13.731,14.568 C13.3339468,14.9416516 12.898145,15.2718553 12.431,15.553 C11.9640612,15.2788088 11.5327934,14.9479686 11.147,14.568 C10.4082396,13.8476166 9.779505,13.0224445 9.281,12.119 C8.75449609,11.2330625 8.35270976,10.2787359 8.087,9.283 C7.95092402,8.75646561 7.88799971,8.21370132 7.9,7.67 C8.29011648,7.42823854 8.71223357,7.24242623 9.154,7.118 C9.04874043,6.34906639 8.96404354,5.57745776 8.9,4.804 C8.9,4.446 8.87,4.117 8.855,3.804 C8.109,3.953 7.392,4.104 6.72,4.281 C5.74028834,4.54125496 4.80039204,4.93315875 3.926,5.446 C3.93257699,6.4641124 4.06696136,7.47737058 4.326,8.462 C4.81189588,10.3276676 5.55537736,12.1165332 6.535,13.777 C7.48914357,15.4497313 8.66438957,16.9862292 10.029,18.345 C10.7469562,19.0589965 11.5499813,19.6820042 12.42,20.2 C13.304148,19.6919479 14.117484,19.0695895 14.839,18.349 C16.1973873,16.9850266 17.371667,15.4493525 18.332,13.781 C19.3148861,12.122047 20.0588802,10.332758 20.542,8.466 C20.8147975,7.48413089 20.9494257,6.46903399 20.942,5.45 C20.0646483,4.94454411 19.1264117,4.55305212 18.15,4.285 L18.153,4.267 Z" id="Path" fill="#FFFFFF"></path>
            </g>
            <path d="M35.948,10.492 C35.684,10.036 35.24,9.808 34.616,9.808 C33.86,9.808 33.248,10.072 32.78,10.588 C32.324,11.104 32.096,11.728 32.096,12.46 C32.096,13.768 32.852,14.704 34.16,14.704 C34.844,14.704 35.372,14.428 35.732,13.876 C35.96,14.344 36.452,14.704 37.076,14.704 C38.324,14.704 39.176,13.708 39.176,11.776 C39.176,10.372 38.78,9.292 37.988,8.536 C37.208,7.768 36.128,7.384 34.772,7.384 C33.452,7.384 32.324,7.84 31.376,8.752 C30.44,9.652 29.972,10.864 29.972,12.388 C29.972,13.816 30.416,14.956 31.304,15.832 C32.204,16.696 33.332,17.128 34.7,17.128 C35.348,17.128 35.888,17.068 36.32,16.96 C36.752,16.852 37.304,16.636 37.964,16.336 L37.628,15.532 C37.064,15.832 36.56,16.024 36.128,16.12 C35.708,16.216 35.228,16.264 34.7,16.264 C33.692,16.264 32.816,15.928 32.084,15.244 C31.352,14.56 30.98,13.612 30.98,12.424 C30.98,9.652 32.804,8.248 34.712,8.248 C37.016,8.248 38.168,9.424 38.168,11.776 C38.168,13.132 37.82,13.816 37.124,13.816 C36.752,13.816 36.56,13.612 36.56,13.192 L36.86,9.892 L36.068,9.892 L35.948,10.492 Z M34.532,10.696 C35.312,10.696 35.708,11.14 35.708,12.016 C35.708,13.024 35.156,13.816 34.244,13.816 C33.488,13.816 33.08,13.324 33.08,12.496 C33.08,11.428 33.608,10.696 34.532,10.696 Z M43.556,14.5 L41.252,7.6 L40.136,7.6 L43.028,16 L44.084,16 L46.976,7.6 L45.86,7.6 L43.556,14.5 Z M48.512,15.184 C49.052,15.796 49.748,16.096 50.624,16.096 C51.5,16.096 52.196,15.796 52.724,15.184 C53.264,14.572 53.528,13.828 53.528,12.976 C53.528,12.124 53.264,11.392 52.724,10.78 C52.196,10.168 51.5,9.856 50.624,9.856 C49.748,9.856 49.052,10.168 48.512,10.78 C47.984,11.392 47.72,12.124 47.72,12.976 C47.72,13.828 47.984,14.572 48.512,15.184 Z M49.244,11.428 C49.58,10.984 50.036,10.768 50.624,10.768 C51.212,10.768 51.668,10.984 51.992,11.428 C52.328,11.86 52.496,12.376 52.496,12.976 C52.496,13.576 52.328,14.092 51.992,14.536 C51.668,14.968 51.212,15.184 50.624,15.184 C50.036,15.184 49.58,14.968 49.244,14.536 C48.92,14.092 48.752,13.576 48.752,12.976 C48.752,12.376 48.92,11.86 49.244,11.428 Z M55.616,15.184 C56.156,15.796 56.852,16.096 57.728,16.096 C58.604,16.096 59.3,15.796 59.828,15.184 C60.368,14.572 60.632,13.828 60.632,12.976 C60.632,12.124 60.368,11.392 59.828,10.78 C59.3,10.168 58.604,9.856 57.728,9.856 C56.852,9.856 56.156,10.168 55.616,10.78 C55.088,11.392 54.824,12.124 54.824,12.976 C54.824,13.828 55.088,14.572 55.616,15.184 Z M56.348,11.428 C56.684,10.984 57.14,10.768 57.728,10.768 C58.316,10.768 58.772,10.984 59.096,11.428 C59.432,11.86 59.6,12.376 59.6,12.976 C59.6,13.576 59.432,14.092 59.096,14.536 C58.772,14.968 58.316,15.184 57.728,15.184 C57.14,15.184 56.684,14.968 56.348,14.536 C56.024,14.092 55.856,13.576 55.856,12.976 C55.856,12.376 56.024,11.86 56.348,11.428 Z M65.996,10.036 C65.768,9.916 65.492,9.856 65.168,9.856 C64.496,9.856 63.74,10.312 63.392,10.984 L63.392,9.952 L62.384,9.952 L62.384,16 L63.392,16 L63.392,13.708 C63.392,12.784 63.56,12.064 63.896,11.548 C64.232,11.032 64.628,10.768 65.084,10.768 C65.336,10.768 65.564,10.828 65.792,10.936 L65.996,10.036 Z M72.224,11.8 C72.224,10.54 71.564,9.856 70.448,9.856 C69.524,9.856 68.732,10.324 68.348,11.08 L68.348,7.504 L67.34,7.504 L67.34,16 L68.348,16 L68.348,13.432 C68.348,12.64 68.528,12.004 68.9,11.512 C69.272,11.02 69.704,10.768 70.172,10.768 C70.868,10.768 71.216,11.176 71.216,12.004 L71.216,16 L72.224,16 L72.224,11.8 Z M74.696,15.184 C75.236,15.796 75.932,16.096 76.808,16.096 C77.684,16.096 78.38,15.796 78.908,15.184 C79.448,14.572 79.712,13.828 79.712,12.976 C79.712,12.124 79.448,11.392 78.908,10.78 C78.38,10.168 77.684,9.856 76.808,9.856 C75.932,9.856 75.236,10.168 74.696,10.78 C74.168,11.392 73.904,12.124 73.904,12.976 C73.904,13.828 74.168,14.572 74.696,15.184 Z M75.428,11.428 C75.764,10.984 76.22,10.768 76.808,10.768 C77.396,10.768 77.852,10.984 78.176,11.428 C78.512,11.86 78.68,12.376 78.68,12.976 C78.68,13.576 78.512,14.092 78.176,14.536 C77.852,14.968 77.396,15.184 76.808,15.184 C76.22,15.184 75.764,14.968 75.428,14.536 C75.104,14.092 74.936,13.576 74.936,12.976 C74.936,12.376 75.104,11.86 75.428,11.428 Z M86.48,12.724 C86.48,11.92 86.24,11.248 85.748,10.696 C85.268,10.132 84.596,9.856 83.744,9.856 C82.868,9.856 82.196,10.156 81.716,10.768 C81.248,11.368 81.008,12.1 81.008,12.976 C81.008,13.852 81.248,14.584 81.716,15.196 C82.196,15.796 82.868,16.096 83.744,16.096 C84.992,16.096 85.748,15.604 86.312,14.416 L85.424,14.032 C85.076,14.812 84.596,15.184 83.744,15.184 C82.7,15.184 82.1,14.38 82.04,13.192 L86.48,13.192 L86.48,12.724 Z M83.744,10.768 C84.668,10.768 85.232,11.368 85.424,12.28 L82.1,12.28 C82.292,11.356 82.844,10.768 83.744,10.768 Z M90.416,9.856 C88.688,9.856 87.728,11.104 87.728,12.976 C87.728,14.848 88.688,16.096 90.416,16.096 C91.136,16.096 91.88,15.724 92.18,15.256 L92.18,16 L93.188,16 L93.188,7.504 L92.18,7.504 L92.18,10.672 C92.072,10.48 91.832,10.3 91.484,10.12 C91.136,9.94 90.776,9.856 90.416,9.856 Z M90.512,15.184 C89.456,15.184 88.76,14.284 88.76,12.976 C88.76,11.668 89.456,10.768 90.512,10.768 C91.604,10.768 92.264,11.668 92.264,12.976 C92.264,14.284 91.604,15.184 90.512,15.184 Z M100.412,12.724 C100.412,11.92 100.172,11.248 99.68,10.696 C99.2,10.132 98.528,9.856 97.676,9.856 C96.8,9.856 96.128,10.156 95.648,10.768 C95.18,11.368 94.94,12.1 94.94,12.976 C94.94,13.852 95.18,14.584 95.648,15.196 C96.128,15.796 96.8,16.096 97.676,16.096 C98.924,16.096 99.68,15.604 100.244,14.416 L99.356,14.032 C99.008,14.812 98.528,15.184 97.676,15.184 C96.632,15.184 96.032,14.38 95.972,13.192 L100.412,13.192 L100.412,12.724 Z M97.676,10.768 C98.6,10.768 99.164,11.368 99.356,12.28 L96.032,12.28 C96.224,11.356 96.776,10.768 97.676,10.768 Z M101.24,16.6 L102.248,16.6 L107.48,7 L106.472,7 L101.24,16.6 Z M113.42,11.74 C113.42,10.54 112.748,9.856 111.644,9.856 C110.768,9.856 110.096,10.264 109.64,11.068 L109.64,9.952 L108.632,9.952 L108.632,16 L109.64,16 L109.64,13.468 C109.64,12.664 109.808,12.004 110.144,11.512 C110.492,11.02 110.9,10.768 111.368,10.768 C112.064,10.768 112.412,11.176 112.412,12.004 L112.412,16 L113.42,16 L113.42,11.74 Z M115.484,14.212 C115.484,15.412 116.156,16.096 117.26,16.096 C118.136,16.096 118.808,15.688 119.264,14.884 L119.264,16 L120.272,16 L120.272,9.952 L119.264,9.952 L119.264,12.484 C119.264,13.288 119.096,13.948 118.748,14.44 C118.412,14.932 118.004,15.184 117.536,15.184 C116.84,15.184 116.492,14.776 116.492,13.948 L116.492,9.952 L115.484,9.952 L115.484,14.212 Z M123.56,12.808 L121.592,16 L122.732,16 L124.124,13.732 L125.516,16 L126.656,16 L124.688,12.808 L126.44,9.952 L125.3,9.952 L124.124,11.872 L122.948,9.952 L121.808,9.952 L123.56,12.808 Z M128.216,10.864 L128.216,14.104 C128.216,15.412 128.9,16.096 129.968,16.096 C130.364,16.096 130.688,16.024 130.952,15.868 L130.712,14.992 C130.52,15.124 130.292,15.184 130.028,15.184 C129.512,15.184 129.224,14.824 129.224,14.188 L129.224,10.864 L130.808,10.864 L130.808,9.952 L129.224,9.952 L129.224,7.504 L128.216,8.14 L128.216,9.952 L127.172,9.952 L127.172,10.864 L128.216,10.864 Z M136.328,12.64 L136.328,11.752 L132.26,11.752 L132.26,12.64 L136.328,12.64 Z M140.516,9.856 C138.788,9.856 137.828,11.104 137.828,12.976 C137.828,14.848 138.788,16.096 140.516,16.096 C141.236,16.096 141.98,15.724 142.28,15.256 L142.28,16 L143.288,16 L143.288,7.504 L142.28,7.504 L142.28,10.672 C142.172,10.48 141.932,10.3 141.584,10.12 C141.236,9.94 140.876,9.856 140.516,9.856 Z M140.612,15.184 C139.556,15.184 138.86,14.284 138.86,12.976 C138.86,11.668 139.556,10.768 140.612,10.768 C141.704,10.768 142.364,11.668 142.364,12.976 C142.364,14.284 141.704,15.184 140.612,15.184 Z M146.096,14.26 C146.096,13.576 146.684,13.192 147.704,13.192 L148.784,13.192 L148.784,13.336 C148.784,13.972 148.616,14.44 148.28,14.74 C147.944,15.04 147.548,15.184 147.092,15.184 C146.456,15.184 146.096,14.836 146.096,14.26 Z M149.792,12.136 C149.792,10.6 148.868,9.856 147.464,9.856 C146.324,9.856 145.472,10.492 145.316,11.512 L146.204,11.716 C146.336,11.128 146.828,10.768 147.464,10.768 C148.34,10.768 148.784,11.188 148.784,12.016 L148.784,12.28 L147.8,12.28 C146.108,12.28 145.064,12.976 145.064,14.26 C145.064,15.496 145.844,16.096 146.936,16.096 C147.764,16.096 148.388,15.784 148.832,15.148 L149,16 L149.792,16 L149.792,12.136 Z M151.952,10.864 L151.952,14.104 C151.952,15.412 152.636,16.096 153.704,16.096 C154.1,16.096 154.424,16.024 154.688,15.868 L154.448,14.992 C154.256,15.124 154.028,15.184 153.764,15.184 C153.248,15.184 152.96,14.824 152.96,14.188 L152.96,10.864 L154.544,10.864 L154.544,9.952 L152.96,9.952 L152.96,7.504 L151.952,8.14 L151.952,9.952 L150.908,9.952 L150.908,10.864 L151.952,10.864 Z M156.584,15.184 C157.124,15.796 157.82,16.096 158.696,16.096 C159.572,16.096 160.268,15.796 160.796,15.184 C161.336,14.572 161.6,13.828 161.6,12.976 C161.6,12.124 161.336,11.392 160.796,10.78 C160.268,10.168 159.572,9.856 158.696,9.856 C157.82,9.856 157.124,10.168 156.584,10.78 C156.056,11.392 155.792,12.124 155.792,12.976 C155.792,13.828 156.056,14.572 156.584,15.184 Z M157.316,11.428 C157.652,10.984 158.108,10.768 158.696,10.768 C159.284,10.768 159.74,10.984 160.064,11.428 C160.4,11.86 160.568,12.376 160.568,12.976 C160.568,13.576 160.4,14.092 160.064,14.536 C159.74,14.968 159.284,15.184 158.696,15.184 C158.108,15.184 157.652,14.968 157.316,14.536 C156.992,14.092 156.824,13.576 156.824,12.976 C156.824,12.376 156.992,11.86 157.316,11.428 Z M167.3,14.068 C166.976,14.812 166.424,15.184 165.644,15.184 C164.528,15.184 163.928,14.272 163.928,12.976 C163.928,11.68 164.528,10.768 165.644,10.768 C166.424,10.768 166.976,11.14 167.3,11.884 L168.176,11.524 C167.684,10.408 166.844,9.856 165.644,9.856 C164.768,9.856 164.084,10.156 163.604,10.768 C163.136,11.368 162.896,12.1 162.896,12.976 C162.896,13.852 163.136,14.584 163.604,15.196 C164.084,15.796 164.768,16.096 165.644,16.096 C166.844,16.096 167.684,15.544 168.176,14.428 L167.3,14.068 Z M177.992,11.74 C177.992,10.552 177.38,9.856 176.288,9.856 C175.424,9.856 174.764,10.276 174.32,11.116 C174.128,10.312 173.528,9.856 172.7,9.856 C171.848,9.856 171.224,10.264 170.816,11.068 L170.816,9.952 L169.808,9.952 L169.808,16 L170.816,16 L170.816,13.516 C170.816,11.824 171.512,10.768 172.424,10.768 C173.072,10.768 173.396,11.164 173.396,11.956 L173.396,16 L174.404,16 L174.404,13.516 C174.404,11.824 175.1,10.768 176.012,10.768 C176.66,10.768 176.984,11.164 176.984,11.956 L176.984,16 L177.992,16 L177.992,11.74 Z M181.88,9.856 C180.812,9.856 180.104,10.564 180.104,11.524 C180.104,12.5547368 180.910958,12.9706482 181.648142,13.2616731 L181.904,13.36 C182.444,13.552 182.888,13.84 182.888,14.236 C182.888,14.872 182.564,15.184 181.916,15.184 C181.304,15.184 180.836,14.788 180.512,13.996 L179.66,14.464 C180.008,15.388 180.776,16.096 181.916,16.096 C183.152,16.096 183.920114,15.376 183.920114,14.176 C183.932,12.4 181.1,12.616 181.112,11.536 C181.112,11.056 181.424,10.768 181.844,10.768 C182.216,10.768 182.576,10.972 182.948,11.368 L183.632,10.78 C183.2,10.168 182.612,9.856 181.88,9.856 Z" id="@Voorhoede/nuxt-datocms-module" fill="#0000FF"></path>
        </g>
    </g>
</svg>