<?xml version="1.0" encoding="UTF-8"?>
<svg width="241px" height="40px" viewBox="0 0 241 40" version="1.1" xmlns="http://www.w3.org/2000/svg" xmlns:xlink="http://www.w3.org/1999/xlink">
    <!-- Generator: Sketch 58 (84663) - https://sketch.com -->
    <title>Artboard</title>
    <desc>Created with Sketch.</desc>
    <g id="Artboard" stroke="none" stroke-width="1" fill="none" fill-rule="evenodd">
        <g id="logo-with-text" transform="translate(4.000000, 8.000000)" fill-rule="nonzero">
            <path d="M1.044,3.714 C0.507,6.745 1.537,11.03 3.944,15.214 C6.363,19.394 9.558,22.425 12.454,23.5 L12.454,0.5 C7.617,0.5 3.377,1.754 1.018,3.71 L1.044,3.714 Z" id="Path" fill="#070DE9"></path>
            <path d="M20.93,15.21 C23.349,11.03 24.364,6.745 23.856,3.71 C21.5,1.773 17.287,0.5 12.435,0.5 L12.435,23.5 C15.317,22.425 18.526,19.394 20.945,15.214 L20.93,15.21 Z" id="Path" fill="#E9D100"></path>
            <path d="M18.153,4.267 C17.4465458,4.06810328 16.7271553,3.91841123 16,3.819 C16.0063286,4.14793537 15.991632,4.47693901 15.956,4.804 C15.896,5.55 15.806,6.342 15.702,7.118 C16.1452242,7.25148734 16.5711643,7.43676625 16.971,7.67 C16.9637536,8.2148937 16.888505,8.75675102 16.747,9.283 C16.4944536,10.2831899 16.0918891,11.2393649 15.553,12.119 C15.0813731,13.0280374 14.4661298,13.8550027 13.731,14.568 C13.3339468,14.9416516 12.898145,15.2718553 12.431,15.553 C11.9640612,15.2788088 11.5327934,14.9479686 11.147,14.568 C10.4082396,13.8476166 9.779505,13.0224445 9.281,12.119 C8.75449609,11.2330625 8.35270976,10.2787359 8.087,9.283 C7.95092402,8.75646561 7.88799971,8.21370132 7.9,7.67 C8.29011648,7.42823854 8.71223357,7.24242623 9.154,7.118 C9.04874043,6.34906639 8.96404354,5.57745776 8.9,4.804 C8.9,4.446 8.87,4.117 8.855,3.804 C8.109,3.953 7.392,4.104 6.72,4.281 C5.74028834,4.54125496 4.80039204,4.93315875 3.926,5.446 C3.93257699,6.4641124 4.06696136,7.47737058 4.326,8.462 C4.81189588,10.3276676 5.55537736,12.1165332 6.535,13.777 C7.48914357,15.4497313 8.66438957,16.9862292 10.029,18.345 C10.7469562,19.0589965 11.5499813,19.6820042 12.42,20.2 C13.304148,19.6919479 14.117484,19.0695895 14.839,18.349 C16.1973873,16.9850266 17.371667,15.4493525 18.332,13.781 C19.3148861,12.122047 20.0588802,10.332758 20.542,8.466 C20.8147975,7.48413089 20.9494257,6.46903399 20.942,5.45 C20.0646483,4.94454411 19.1264117,4.55305212 18.15,4.285 L18.153,4.267 Z" id="Path" fill="#FFFFFF"></path>
        </g>
        <path d="M39.948,18.492 C39.684,18.036 39.24,17.808 38.616,17.808 C37.86,17.808 37.248,18.072 36.78,18.588 C36.324,19.104 36.096,19.728 36.096,20.46 C36.096,21.768 36.852,22.704 38.16,22.704 C38.844,22.704 39.372,22.428 39.732,21.876 C39.96,22.344 40.452,22.704 41.076,22.704 C42.324,22.704 43.176,21.708 43.176,19.776 C43.176,18.372 42.78,17.292 41.988,16.536 C41.208,15.768 40.128,15.384 38.772,15.384 C37.452,15.384 36.324,15.84 35.376,16.752 C34.44,17.652 33.972,18.864 33.972,20.388 C33.972,21.816 34.416,22.956 35.304,23.832 C36.204,24.696 37.332,25.128 38.7,25.128 C39.348,25.128 39.888,25.068 40.32,24.96 C40.752,24.852 41.304,24.636 41.964,24.336 L41.628,23.532 C41.064,23.832 40.56,24.024 40.128,24.12 C39.708,24.216 39.228,24.264 38.7,24.264 C37.692,24.264 36.816,23.928 36.084,23.244 C35.352,22.56 34.98,21.612 34.98,20.424 C34.98,17.652 36.804,16.248 38.712,16.248 C41.016,16.248 42.168,17.424 42.168,19.776 C42.168,21.132 41.82,21.816 41.124,21.816 C40.752,21.816 40.56,21.612 40.56,21.192 L40.86,17.892 L40.068,17.892 L39.948,18.492 Z M38.532,18.696 C39.312,18.696 39.708,19.14 39.708,20.016 C39.708,21.024 39.156,21.816 38.244,21.816 C37.488,21.816 37.08,21.324 37.08,20.496 C37.08,19.428 37.608,18.696 38.532,18.696 Z M47.556,22.5 L45.252,15.6 L44.136,15.6 L47.028,24 L48.084,24 L50.976,15.6 L49.86,15.6 L47.556,22.5 Z M52.512,23.184 C53.052,23.796 53.748,24.096 54.624,24.096 C55.5,24.096 56.196,23.796 56.724,23.184 C57.264,22.572 57.528,21.828 57.528,20.976 C57.528,20.124 57.264,19.392 56.724,18.78 C56.196,18.168 55.5,17.856 54.624,17.856 C53.748,17.856 53.052,18.168 52.512,18.78 C51.984,19.392 51.72,20.124 51.72,20.976 C51.72,21.828 51.984,22.572 52.512,23.184 Z M53.244,19.428 C53.58,18.984 54.036,18.768 54.624,18.768 C55.212,18.768 55.668,18.984 55.992,19.428 C56.328,19.86 56.496,20.376 56.496,20.976 C56.496,21.576 56.328,22.092 55.992,22.536 C55.668,22.968 55.212,23.184 54.624,23.184 C54.036,23.184 53.58,22.968 53.244,22.536 C52.92,22.092 52.752,21.576 52.752,20.976 C52.752,20.376 52.92,19.86 53.244,19.428 Z M59.616,23.184 C60.156,23.796 60.852,24.096 61.728,24.096 C62.604,24.096 63.3,23.796 63.828,23.184 C64.368,22.572 64.632,21.828 64.632,20.976 C64.632,20.124 64.368,19.392 63.828,18.78 C63.3,18.168 62.604,17.856 61.728,17.856 C60.852,17.856 60.156,18.168 59.616,18.78 C59.088,19.392 58.824,20.124 58.824,20.976 C58.824,21.828 59.088,22.572 59.616,23.184 Z M60.348,19.428 C60.684,18.984 61.14,18.768 61.728,18.768 C62.316,18.768 62.772,18.984 63.096,19.428 C63.432,19.86 63.6,20.376 63.6,20.976 C63.6,21.576 63.432,22.092 63.096,22.536 C62.772,22.968 62.316,23.184 61.728,23.184 C61.14,23.184 60.684,22.968 60.348,22.536 C60.024,22.092 59.856,21.576 59.856,20.976 C59.856,20.376 60.024,19.86 60.348,19.428 Z M69.996,18.036 C69.768,17.916 69.492,17.856 69.168,17.856 C68.496,17.856 67.74,18.312 67.392,18.984 L67.392,17.952 L66.384,17.952 L66.384,24 L67.392,24 L67.392,21.708 C67.392,20.784 67.56,20.064 67.896,19.548 C68.232,19.032 68.628,18.768 69.084,18.768 C69.336,18.768 69.564,18.828 69.792,18.936 L69.996,18.036 Z M76.224,19.8 C76.224,18.54 75.564,17.856 74.448,17.856 C73.524,17.856 72.732,18.324 72.348,19.08 L72.348,15.504 L71.34,15.504 L71.34,24 L72.348,24 L72.348,21.432 C72.348,20.64 72.528,20.004 72.9,19.512 C73.272,19.02 73.704,18.768 74.172,18.768 C74.868,18.768 75.216,19.176 75.216,20.004 L75.216,24 L76.224,24 L76.224,19.8 Z M78.696,23.184 C79.236,23.796 79.932,24.096 80.808,24.096 C81.684,24.096 82.38,23.796 82.908,23.184 C83.448,22.572 83.712,21.828 83.712,20.976 C83.712,20.124 83.448,19.392 82.908,18.78 C82.38,18.168 81.684,17.856 80.808,17.856 C79.932,17.856 79.236,18.168 78.696,18.78 C78.168,19.392 77.904,20.124 77.904,20.976 C77.904,21.828 78.168,22.572 78.696,23.184 Z M79.428,19.428 C79.764,18.984 80.22,18.768 80.808,18.768 C81.396,18.768 81.852,18.984 82.176,19.428 C82.512,19.86 82.68,20.376 82.68,20.976 C82.68,21.576 82.512,22.092 82.176,22.536 C81.852,22.968 81.396,23.184 80.808,23.184 C80.22,23.184 79.764,22.968 79.428,22.536 C79.104,22.092 78.936,21.576 78.936,20.976 C78.936,20.376 79.104,19.86 79.428,19.428 Z M90.48,20.724 C90.48,19.92 90.24,19.248 89.748,18.696 C89.268,18.132 88.596,17.856 87.744,17.856 C86.868,17.856 86.196,18.156 85.716,18.768 C85.248,19.368 85.008,20.1 85.008,20.976 C85.008,21.852 85.248,22.584 85.716,23.196 C86.196,23.796 86.868,24.096 87.744,24.096 C88.992,24.096 89.748,23.604 90.312,22.416 L89.424,22.032 C89.076,22.812 88.596,23.184 87.744,23.184 C86.7,23.184 86.1,22.38 86.04,21.192 L90.48,21.192 L90.48,20.724 Z M87.744,18.768 C88.668,18.768 89.232,19.368 89.424,20.28 L86.1,20.28 C86.292,19.356 86.844,18.768 87.744,18.768 Z M94.416,17.856 C92.688,17.856 91.728,19.104 91.728,20.976 C91.728,22.848 92.688,24.096 94.416,24.096 C95.136,24.096 95.88,23.724 96.18,23.256 L96.18,24 L97.188,24 L97.188,15.504 L96.18,15.504 L96.18,18.672 C96.072,18.48 95.832,18.3 95.484,18.12 C95.136,17.94 94.776,17.856 94.416,17.856 Z M94.512,23.184 C93.456,23.184 92.76,22.284 92.76,20.976 C92.76,19.668 93.456,18.768 94.512,18.768 C95.604,18.768 96.264,19.668 96.264,20.976 C96.264,22.284 95.604,23.184 94.512,23.184 Z M104.412,20.724 C104.412,19.92 104.172,19.248 103.68,18.696 C103.2,18.132 102.528,17.856 101.676,17.856 C100.8,17.856 100.128,18.156 99.648,18.768 C99.18,19.368 98.94,20.1 98.94,20.976 C98.94,21.852 99.18,22.584 99.648,23.196 C100.128,23.796 100.8,24.096 101.676,24.096 C102.924,24.096 103.68,23.604 104.244,22.416 L103.356,22.032 C103.008,22.812 102.528,23.184 101.676,23.184 C100.632,23.184 100.032,22.38 99.972,21.192 L104.412,21.192 L104.412,20.724 Z M101.676,18.768 C102.6,18.768 103.164,19.368 103.356,20.28 L100.032,20.28 C100.224,19.356 100.776,18.768 101.676,18.768 Z M105.24,24.6 L106.248,24.6 L111.48,15 L110.472,15 L105.24,24.6 Z M117.42,19.74 C117.42,18.54 116.748,17.856 115.644,17.856 C114.768,17.856 114.096,18.264 113.64,19.068 L113.64,17.952 L112.632,17.952 L112.632,24 L113.64,24 L113.64,21.468 C113.64,20.664 113.808,20.004 114.144,19.512 C114.492,19.02 114.9,18.768 115.368,18.768 C116.064,18.768 116.412,19.176 116.412,20.004 L116.412,24 L117.42,24 L117.42,19.74 Z M119.484,22.212 C119.484,23.412 120.156,24.096 121.26,24.096 C122.136,24.096 122.808,23.688 123.264,22.884 L123.264,24 L124.272,24 L124.272,17.952 L123.264,17.952 L123.264,20.484 C123.264,21.288 123.096,21.948 122.748,22.44 C122.412,22.932 122.004,23.184 121.536,23.184 C120.84,23.184 120.492,22.776 120.492,21.948 L120.492,17.952 L119.484,17.952 L119.484,22.212 Z M127.56,20.808 L125.592,24 L126.732,24 L128.124,21.732 L129.516,24 L130.656,24 L128.688,20.808 L130.44,17.952 L129.3,17.952 L128.124,19.872 L126.948,17.952 L125.808,17.952 L127.56,20.808 Z M132.216,18.864 L132.216,22.104 C132.216,23.412 132.9,24.096 133.968,24.096 C134.364,24.096 134.688,24.024 134.952,23.868 L134.712,22.992 C134.52,23.124 134.292,23.184 134.028,23.184 C133.512,23.184 133.224,22.824 133.224,22.188 L133.224,18.864 L134.808,18.864 L134.808,17.952 L133.224,17.952 L133.224,15.504 L132.216,16.14 L132.216,17.952 L131.172,17.952 L131.172,18.864 L132.216,18.864 Z M140.328,20.64 L140.328,19.752 L136.26,19.752 L136.26,20.64 L140.328,20.64 Z M144.516,17.856 C142.788,17.856 141.828,19.104 141.828,20.976 C141.828,22.848 142.788,24.096 144.516,24.096 C145.236,24.096 145.98,23.724 146.28,23.256 L146.28,24 L147.288,24 L147.288,15.504 L146.28,15.504 L146.28,18.672 C146.172,18.48 145.932,18.3 145.584,18.12 C145.236,17.94 144.876,17.856 144.516,17.856 Z M144.612,23.184 C143.556,23.184 142.86,22.284 142.86,20.976 C142.86,19.668 143.556,18.768 144.612,18.768 C145.704,18.768 146.364,19.668 146.364,20.976 C146.364,22.284 145.704,23.184 144.612,23.184 Z M150.096,22.26 C150.096,21.576 150.684,21.192 151.704,21.192 L152.784,21.192 L152.784,21.336 C152.784,21.972 152.616,22.44 152.28,22.74 C151.944,23.04 151.548,23.184 151.092,23.184 C150.456,23.184 150.096,22.836 150.096,22.26 Z M153.792,20.136 C153.792,18.6 152.868,17.856 151.464,17.856 C150.324,17.856 149.472,18.492 149.316,19.512 L150.204,19.716 C150.336,19.128 150.828,18.768 151.464,18.768 C152.34,18.768 152.784,19.188 152.784,20.016 L152.784,20.28 L151.8,20.28 C150.108,20.28 149.064,20.976 149.064,22.26 C149.064,23.496 149.844,24.096 150.936,24.096 C151.764,24.096 152.388,23.784 152.832,23.148 L153,24 L153.792,24 L153.792,20.136 Z M155.952,18.864 L155.952,22.104 C155.952,23.412 156.636,24.096 157.704,24.096 C158.1,24.096 158.424,24.024 158.688,23.868 L158.448,22.992 C158.256,23.124 158.028,23.184 157.764,23.184 C157.248,23.184 156.96,22.824 156.96,22.188 L156.96,18.864 L158.544,18.864 L158.544,17.952 L156.96,17.952 L156.96,15.504 L155.952,16.14 L155.952,17.952 L154.908,17.952 L154.908,18.864 L155.952,18.864 Z M160.584,23.184 C161.124,23.796 161.82,24.096 162.696,24.096 C163.572,24.096 164.268,23.796 164.796,23.184 C165.336,22.572 165.6,21.828 165.6,20.976 C165.6,20.124 165.336,19.392 164.796,18.78 C164.268,18.168 163.572,17.856 162.696,17.856 C161.82,17.856 161.124,18.168 160.584,18.78 C160.056,19.392 159.792,20.124 159.792,20.976 C159.792,21.828 160.056,22.572 160.584,23.184 Z M161.316,19.428 C161.652,18.984 162.108,18.768 162.696,18.768 C163.284,18.768 163.74,18.984 164.064,19.428 C164.4,19.86 164.568,20.376 164.568,20.976 C164.568,21.576 164.4,22.092 164.064,22.536 C163.74,22.968 163.284,23.184 162.696,23.184 C162.108,23.184 161.652,22.968 161.316,22.536 C160.992,22.092 160.824,21.576 160.824,20.976 C160.824,20.376 160.992,19.86 161.316,19.428 Z M171.3,22.068 C170.976,22.812 170.424,23.184 169.644,23.184 C168.528,23.184 167.928,22.272 167.928,20.976 C167.928,19.68 168.528,18.768 169.644,18.768 C170.424,18.768 170.976,19.14 171.3,19.884 L172.176,19.524 C171.684,18.408 170.844,17.856 169.644,17.856 C168.768,17.856 168.084,18.156 167.604,18.768 C167.136,19.368 166.896,20.1 166.896,20.976 C166.896,21.852 167.136,22.584 167.604,23.196 C168.084,23.796 168.768,24.096 169.644,24.096 C170.844,24.096 171.684,23.544 172.176,22.428 L171.3,22.068 Z M181.992,19.74 C181.992,18.552 181.38,17.856 180.288,17.856 C179.424,17.856 178.764,18.276 178.32,19.116 C178.128,18.312 177.528,17.856 176.7,17.856 C175.848,17.856 175.224,18.264 174.816,19.068 L174.816,17.952 L173.808,17.952 L173.808,24 L174.816,24 L174.816,21.516 C174.816,19.824 175.512,18.768 176.424,18.768 C177.072,18.768 177.396,19.164 177.396,19.956 L177.396,24 L178.404,24 L178.404,21.516 C178.404,19.824 179.1,18.768 180.012,18.768 C180.66,18.768 180.984,19.164 180.984,19.956 L180.984,24 L181.992,24 L181.992,19.74 Z M185.88,17.856 C184.812,17.856 184.104,18.564 184.104,19.524 C184.104,20.5547368 184.910958,20.9706482 185.648142,21.2616731 L185.904,21.36 C186.444,21.552 186.888,21.84 186.888,22.236 C186.888,22.872 186.564,23.184 185.916,23.184 C185.304,23.184 184.836,22.788 184.512,21.996 L183.66,22.464 C184.008,23.388 184.776,24.096 185.916,24.096 C187.152,24.096 187.920076,23.376 187.920076,22.176 C187.932,20.4 185.1,20.616 185.112,19.536 C185.112,19.056 185.424,18.768 185.844,18.768 C186.216,18.768 186.576,18.972 186.948,19.368 L187.632,18.78 C187.2,18.168 186.612,17.856 185.88,17.856 Z M193.5,20.64 L193.5,19.752 L189.432,19.752 L189.432,20.64 L193.5,20.64 Z M203.64,19.74 C203.64,18.552 203.028,17.856 201.936,17.856 C201.072,17.856 200.412,18.276 199.968,19.116 C199.776,18.312 199.176,17.856 198.348,17.856 C197.496,17.856 196.872,18.264 196.464,19.068 L196.464,17.952 L195.456,17.952 L195.456,24 L196.464,24 L196.464,21.516 C196.464,19.824 197.16,18.768 198.072,18.768 C198.72,18.768 199.044,19.164 199.044,19.956 L199.044,24 L200.052,24 L200.052,21.516 C200.052,19.824 200.748,18.768 201.66,18.768 C202.308,18.768 202.632,19.164 202.632,19.956 L202.632,24 L203.64,24 L203.64,19.74 Z M206.136,23.184 C206.676,23.796 207.372,24.096 208.248,24.096 C209.124,24.096 209.82,23.796 210.348,23.184 C210.888,22.572 211.152,21.828 211.152,20.976 C211.152,20.124 210.888,19.392 210.348,18.78 C209.82,18.168 209.124,17.856 208.248,17.856 C207.372,17.856 206.676,18.168 206.136,18.78 C205.608,19.392 205.344,20.124 205.344,20.976 C205.344,21.828 205.608,22.572 206.136,23.184 Z M206.868,19.428 C207.204,18.984 207.66,18.768 208.248,18.768 C208.836,18.768 209.292,18.984 209.616,19.428 C209.952,19.86 210.12,20.376 210.12,20.976 C210.12,21.576 209.952,22.092 209.616,22.536 C209.292,22.968 208.836,23.184 208.248,23.184 C207.66,23.184 207.204,22.968 206.868,22.536 C206.544,22.092 206.376,21.576 206.376,20.976 C206.376,20.376 206.544,19.86 206.868,19.428 Z M215.136,17.856 C213.408,17.856 212.448,19.104 212.448,20.976 C212.448,22.848 213.408,24.096 215.136,24.096 C215.856,24.096 216.6,23.724 216.9,23.256 L216.9,24 L217.908,24 L217.908,15.504 L216.9,15.504 L216.9,18.672 C216.792,18.48 216.552,18.3 216.204,18.12 C215.856,17.94 215.496,17.856 215.136,17.856 Z M215.232,23.184 C214.176,23.184 213.48,22.284 213.48,20.976 C213.48,19.668 214.176,18.768 215.232,18.768 C216.324,18.768 216.984,19.668 216.984,20.976 C216.984,22.284 216.324,23.184 215.232,23.184 Z M220.044,22.212 C220.044,23.412 220.716,24.096 221.82,24.096 C222.696,24.096 223.368,23.688 223.824,22.884 L223.824,24 L224.832,24 L224.832,17.952 L223.824,17.952 L223.824,20.484 C223.824,21.288 223.656,21.948 223.308,22.44 C222.972,22.932 222.564,23.184 222.096,23.184 C221.4,23.184 221.052,22.776 221.052,21.948 L221.052,17.952 L220.044,17.952 L220.044,22.212 Z M227.016,24 L228.024,24 L228.024,15.504 L227.016,15.504 L227.016,24 Z M235.152,20.724 C235.152,19.92 234.912,19.248 234.42,18.696 C233.94,18.132 233.268,17.856 232.416,17.856 C231.54,17.856 230.868,18.156 230.388,18.768 C229.92,19.368 229.68,20.1 229.68,20.976 C229.68,21.852 229.92,22.584 230.388,23.196 C230.868,23.796 231.54,24.096 232.416,24.096 C233.664,24.096 234.42,23.604 234.984,22.416 L234.096,22.032 C233.748,22.812 233.268,23.184 232.416,23.184 C231.372,23.184 230.772,22.38 230.712,21.192 L235.152,21.192 L235.152,20.724 Z M232.416,18.768 C233.34,18.768 233.904,19.368 234.096,20.28 L230.772,20.28 C230.964,19.356 231.516,18.768 232.416,18.768 Z" id="@Voorhoede/nuxt-datocms-module" fill="#FFFFFF" fill-rule="nonzero"></path>
    </g>
</svg>